<?xml version="1.0" encoding="UTF-8"?>
<svg id="Layer_1" data-name="Layer 1" xmlns="http://www.w3.org/2000/svg" viewBox="0 0 659.98 715.43">
  <defs>
    <style>
      .cls-1 {
        fill: #1d9bf0;
      }
    </style>
  </defs>
  <path class="cls-1" d="M612.84,203.2c-25.18-7.9-51.01-6.54-76.62-2.48-40.23,6.38-78.14,20.15-114.79,37.62-6.15,2.93-13.59,9.21-18.28,7.62-5.67-1.92-6.26-11.86-8.88-18.37-25.55-63.56-50.9-127.2-76.4-190.79C308.64,13.76,288.98,.22,264.92,0c-22.76-.21-45,13.43-52.5,33.61-10.94,29.44-21.02,59.2-31.47,88.83h0c-14.81,41.22-29.66,82.41-44.41,123.65C93.34,366.82,50.16,487.55,7.06,608.31c-6.37,17.84-9.18,36.14-5.25,55,4.41,21.2,15.03,37.13,36.63,44.38,17.96,6.03,36.29,8.57,55.1,7.49,31.35-1.79,61.54-9.31,91.12-19.48,55.76-19.16,108.01-45.67,158.52-75.83,13.2-7.89,13.04-7.83,3.86-20.41-2.48-3.4-4.17-4.09-8.03-1.87-31.42,18.08-63.52,34.82-96.86,49.13-35.3,15.15-71.09,28.61-109.83,31.76-15.71,1.28-30.99-.5-44.84-8.87-7.08-4.28-11.48-10.35-13.13-18.72-2.51-12.81,.97-24.71,5.85-35.98,15.69-36.29,36.53-69.33,65.67-96.43,21.01-19.54,42.22-38.94,64.28-57.26,26.08-21.66,53.17-42.1,79.82-63.07,18.84-12.98,37.44-26.32,56.57-38.87,49.53-32.49,100.7-61.94,157.79-79.31,23.83-7.25,47.94-13.79,73.42-10.51,23.83,3.08,37.55,19.88,34.47,42.25-1.99,14.46-6.48,28.06-12.96,41.09-18.96,38.12-45.63,70.59-73.98,101.9-10.62,11.73-9.4,6.49-3.15,21.26,2.75,6.51,4.76,5.45,8.98,1.31,29.04-28.47,56.07-58.69,79.4-92.03,22.72-32.48,43.56-66.23,48.45-106.57,5.06-41.73-7.82-63.47-46.1-75.48Zm-279.79,79.58c-23.68,13.58-47.45,27.03-70.16,42.24-2.16,1.44-4.17,3.1-6.25,4.66-31.55,20.06-60.48,43.42-88.11,69.01,6.92-15.34,13.81-30.68,20.76-46,16.47-36.3,32.98-72.58,49.44-108.88,.86-1.89,1.42-3.91,2.12-5.87,5.77-12.3,11.52-24.61,17.31-36.91,2.67-5.66,5.18-11.38,12.72-12.11,8.23-.8,13.05,3.47,17.1,9.97,15.69,25.24,31.52,50.39,47.48,75.46,2.69,4.23,2.21,5.8-2.4,8.44Z"/>
  <path class="cls-1" d="M490.94,500.12c-18.35-53.08-36.62-106.18-54.75-159.33-1.47-4.3-2.84-5.24-7.03-3-11.8,6.31-23.6,12.7-35.81,18.12-6.89,3.06-7.07,5.67-3.42,11.82,43.47,73.42,86.65,147.01,130.33,221.28,1.61-3.96-.59-6.75-1.57-9.58-9.14-26.47-18.59-52.84-27.74-79.31Z"/>
</svg>