<svg width="25" height="25" viewBox="0 0 25 25" fill="none" xmlns="http://www.w3.org/2000/svg">
<path d="M11.6666 4.39062H4.66663C4.13619 4.39063 3.62749 4.60134 3.25241 4.97641C2.87734 5.35148 2.66663 5.86019 2.66663 6.39062V20.3906C2.66663 20.9211 2.87734 21.4298 3.25241 21.8048C3.62749 22.1799 4.13619 22.3906 4.66663 22.3906H18.6666C19.1971 22.3906 19.7058 22.1799 20.0808 21.8048C20.4559 21.4298 20.6666 20.9211 20.6666 20.3906V13.3906" stroke="#7D7D7D" stroke-width="2" stroke-linecap="round" stroke-linejoin="round"/>
<path d="M19.1666 2.89061C19.5645 2.49278 20.104 2.26929 20.6666 2.26929C21.2292 2.26929 21.7688 2.49278 22.1666 2.89061C22.5645 3.28843 22.7879 3.828 22.7879 4.39061C22.7879 4.95322 22.5645 5.49278 22.1666 5.89061L12.6666 15.3906L8.66663 16.3906L9.66663 12.3906L19.1666 2.89061Z" stroke="#7D7D7D" stroke-width="2" stroke-linecap="round" stroke-linejoin="round"/>
</svg>
