<svg width="25" height="25" viewBox="0 0 25 25" fill="none" xmlns="http://www.w3.org/2000/svg">
<path d="M3.66663 6.39062H5.66663H21.6666" stroke="#FF4861" stroke-width="2" stroke-linecap="round" stroke-linejoin="round"/>
<path d="M19.6666 6.39062V20.3906C19.6666 20.9211 19.4559 21.4298 19.0808 21.8048C18.7058 22.1799 18.1971 22.3906 17.6666 22.3906H7.66663C7.13619 22.3906 6.62749 22.1799 6.25241 21.8048C5.87734 21.4298 5.66663 20.9211 5.66663 20.3906V6.39062M8.66663 6.39062V4.39062C8.66663 3.86019 8.87734 3.35148 9.25241 2.97641C9.62749 2.60134 10.1362 2.39063 10.6666 2.39062H14.6666C15.1971 2.39063 15.7058 2.60134 16.0808 2.97641C16.4559 3.35148 16.6666 3.86019 16.6666 4.39062V6.39062" stroke="#FF4861" stroke-width="2" stroke-linecap="round" stroke-linejoin="round"/>
<path d="M10.6666 11.3906V17.3906" stroke="#FF4861" stroke-width="2" stroke-linecap="round" stroke-linejoin="round"/>
<path d="M14.6666 11.3906V17.3906" stroke="#FF4861" stroke-width="2" stroke-linecap="round" stroke-linejoin="round"/>
</svg>
